<svg width="35" height="35" viewBox="0 0 35 35" fill="none" xmlns="http://www.w3.org/2000/svg">
<circle cx="17.5" cy="17.5" r="17.5" fill="#0E4488"/>
<path d="M14.63 16.608C12.839 16.608 11.777 15.582 11.777 13.728V10.2H13.235V13.674C13.235 14.871 13.757 15.366 14.639 15.366C15.53 15.366 16.043 14.871 16.043 13.674V10.2H17.483V13.728C17.483 15.582 16.421 16.608 14.63 16.608ZM20.9938 16.608C19.9948 16.608 18.9868 16.311 18.4288 15.879L18.9238 14.781C19.4548 15.168 20.2468 15.438 21.0028 15.438C21.8668 15.438 22.2178 15.15 22.2178 14.763C22.2178 13.584 18.5548 14.394 18.5548 12.054C18.5548 10.983 19.4188 10.092 21.2098 10.092C22.0018 10.092 22.8118 10.281 23.3968 10.65L22.9468 11.757C22.3618 11.424 21.7588 11.262 21.2008 11.262C20.3368 11.262 20.0038 11.586 20.0038 11.982C20.0038 13.143 23.6668 12.342 23.6668 14.655C23.6668 15.708 22.7938 16.608 20.9938 16.608ZM9.69239 18.2H12.4104V24.5H10.9524V19.37H9.69239V18.2ZM16.2048 24.608C14.6568 24.608 13.5048 23.429 13.5048 21.35C13.5048 19.271 14.6568 18.092 16.2048 18.092C17.7618 18.092 18.9048 19.271 18.9048 21.35C18.9048 23.429 17.7618 24.608 16.2048 24.608ZM16.2048 23.375C16.9338 23.375 17.4378 22.781 17.4378 21.35C17.4378 19.919 16.9338 19.325 16.2048 19.325C15.4848 19.325 14.9808 19.919 14.9808 21.35C14.9808 22.781 15.4848 23.375 16.2048 23.375ZM22.3132 24.608C20.7652 24.608 19.6132 23.429 19.6132 21.35C19.6132 19.271 20.7652 18.092 22.3132 18.092C23.8702 18.092 25.0132 19.271 25.0132 21.35C25.0132 23.429 23.8702 24.608 22.3132 24.608ZM22.3132 23.375C23.0422 23.375 23.5462 22.781 23.5462 21.35C23.5462 19.919 23.0422 19.325 22.3132 19.325C21.5932 19.325 21.0892 19.919 21.0892 21.35C21.0892 22.781 21.5932 23.375 22.3132 23.375Z" fill="white"/>
</svg>
